<svg height="512pt" viewBox="0 -16 512.00047 512" width="512pt" xmlns="http://www.w3.org/2000/svg"><path d="m158 348h-26.152344l-42.476562 29.503906c-36.464844 11.699219-51.285156 42.285156-55.769532 54.101563-1.09375 2.882812-1.257812 6.023437-.457031 9 2.550781 9.472656 13.585938 13.84375 21.84375 8.546875 36.03125-23.101563 68.574219-2.132813 99.855469-31.917969l11.15625-14.875zm0 0" fill="#e3254c"/><path d="m150.570312 373.5c-8.097656 44.738281 23.25 60.207031 9.125 89.066406-3.90625 7.980469 1.976563 17.292969 10.867188 17.292969h32.265625c9.078125 0 16.902344-6.390625 18.683594-15.292969 2.316406-11.613281 4.9375-28.304687 4.957031-44.535156zm0 0" fill="#fd5f7e"/><path d="m361.429688 373.5c8.097656 44.738281-23.246094 60.207031-9.125 89.066406 3.90625 7.980469-1.976563 17.292969-10.867188 17.292969h-32.265625c-9.074219 0-16.902344-6.390625-18.679687-15.292969-2.320313-11.613281-4.941407-28.304687-4.957032-44.535156zm0 0" fill="#fd5f7e"/><path d="m412.824219 108.261719c-1.273438-8.976563-12.179688-12.628907-18.597657-6.230469-10.535156 10.496094-21.210937 15.527344-21.210937 15.527344l20.4375 51.386718c20.746094-16.761718 21.992187-42.234374 19.371094-60.683593zm0 0" fill="#f5e277"/><path d="m401.4375 121.605469c3.542969-3.53125 8.453125-3.996094 12.351562-2.199219-.109374-3.894531-.464843-7.644531-.964843-11.144531-1.273438-8.972657-12.179688-12.628907-18.601563-6.226563-10.53125 10.492188-21.207031 15.527344-21.207031 15.527344l7.6875 19.335938c2.191406-1.109376 11.515625-6.109376 20.734375-15.292969zm0 0" fill="#f0bc63"/><path d="m99.175781 108.261719c1.273438-8.976563 12.179688-12.628907 18.601563-6.230469 10.53125 10.496094 21.207031 15.527344 21.207031 15.527344l-20.4375 51.386718c-20.746094-16.761718-21.992187-42.234374-19.371094-60.683593zm0 0" fill="#f5e277"/><path d="m116.6875 108.261719c.285156-2.015625 1.058594-3.757813 2.15625-5.183594-.355469-.34375-.710938-.691406-1.066406-1.046875-6.421875-6.398438-17.328125-2.746094-18.601563 6.230469-2.621093 18.449219-1.375 43.921875 19.371094 60.683593l5.480469-13.773437c-9.089844-15.140625-9.3125-33.015625-7.339844-46.910156zm0 0" fill="#f0bc63"/><path d="m367.058594 8.429688c-5.28125-10.984376-20.914063-11.328126-26.460938-.476563-12.207031 23.890625-32.65625 45.242187-32.65625 45.242187l65.074219 64.363282c11.910156-53.910156 3.902344-88.621094-5.957031-109.128906zm0 0" fill="#f5e277"/><path d="m361.199219 7.953125c.757812-1.480469 1.703125-2.742187 2.78125-3.804687-6.75-6.542969-18.6875-5.390626-23.382813 3.804687-12.207031 23.890625-32.65625 45.242187-32.65625 45.242187l17.242188 17.050782c7.167968-11.699219 26.230468-43.132813 36.015625-62.292969zm0 0" fill="#f0bc63"/><path d="m144.941406 8.429688c5.28125-10.984376 20.914063-11.328126 26.460938-.476563 12.207031 23.890625 32.65625 45.242187 32.65625 45.242187l-65.074219 64.363282c-11.910156-53.910156-3.902344-88.621094 5.957031-109.128906zm0 0" fill="#f5e277"/><path d="m165.546875 8.429688c.804687-1.675782 1.855469-3.101563 3.074219-4.28125-6.835938-6.75-19.117188-5.207032-23.679688 4.28125-9.859375 20.507812-17.871094 55.21875-5.957031 109.128906l17.371094-17.179688c-6.871094-44.222656.421875-73.710937 9.191406-91.949218zm0 0" fill="#f0bc63"/><path d="m111.851562 202.210938s-17.300781-10.1875-28.703124-22.464844c-6.804688-7.328125-18.1875-7.835938-25.496094-1.011719-20.902344 19.519531-54.761719 60.289063-57.6406252 121.492187-.3554688 7.554688 6.8710932 13.128907 14.1171872 10.96875 23.015625-6.855468 71.191406-11.628906 122.3125 41.417969zm0 0" fill="#ff748f"/><path d="m400.148438 202.210938s17.300781-10.1875 28.703124-22.464844c6.804688-7.328125 18.1875-7.835938 25.496094-1.011719 20.902344 19.519531 54.761719 60.289063 57.640625 121.492187.355469 7.554688-6.871093 13.128907-14.117187 10.96875-23.015625-6.855468-71.191406-11.628906-122.3125 41.421876zm0 0" fill="#ff748f"/><path d="m428.484375 240.019531c0-18.542969-1.742187-37.035156-5.0625-54.941406-10.757813 9.757813-23.273437 17.128906-23.273437 17.128906l-24.589844 150.40625c14.175781-14.707031 28.125-24.96875 41.371094-31.972656 7.570312-24.890625 11.554687-52.207031 11.554687-80.621094zm0 0" fill="#f9496e"/><path d="m88.578125 185.078125c-3.320313 17.90625-5.0625 36.398437-5.0625 54.941406 0 28.414063 3.984375 55.730469 11.554687 80.621094 13.246094 7.003906 27.195313 17.265625 41.371094 31.976563l-24.589844-150.40625s-12.515624-7.375-23.273437-17.132813zm0 0" fill="#f9496e"/><path d="m114.25 236.363281c-1.515625-.890625-25.125-13.289062-39.070312-23.539062-3.046876-2.238281-7.285157-1.742188-9.730469 1.140625-10.921875 12.851562-22.796875 30.894531-29.710938 53.890625-1.390625 4.621093 2.089844 9.234375 6.914063 9.230469h.101562c8.703125 0 18.199219.855468 28.296875 3.023437 19.464844 4.1875 38.207031 12.554687 56.023438 24.996094zm0 0" fill="#f5e277"/><path d="m397.75 236.363281c1.515625-.890625 25.128906-13.289062 39.070312-23.539062 3.046876-2.238281 7.285157-1.742188 9.734376 1.140625 10.917968 12.851562 22.796874 30.894531 29.707031 53.890625 1.390625 4.621093-2.085938 9.234375-6.914063 9.230469h-.101562c-8.703125 0-18.199219.855468-28.296875 3.023437-19.464844 4.1875-38.203125 12.554687-56.023438 24.996094zm0 0" fill="#f5e277"/><path d="m425.125 284.5c2.21875-14.375 3.359375-29.273438 3.359375-44.480469 0-7.023437-.253906-14.039062-.742187-21.023437-13.277344 8.496094-28.777344 16.648437-29.996094 17.367187l-12.820313 68.742188c12.9375-9.03125 26.363281-15.910157 40.199219-20.605469zm0 0" fill="#f0bc63"/><path d="m114.25 236.363281c-1.21875-.71875-16.714844-8.871093-29.992188-17.367187-.488281 6.980468-.742187 14-.742187 21.023437 0 15.207031 1.140625 30.105469 3.359375 44.480469 13.835938 4.699219 27.261719 11.574219 40.199219 20.605469zm0 0" fill="#f0bc63"/><path d="m109.675781 254.882812s-29.527343 27.570313-33.625 88.921876c-2.652343 39.6875 46.5625 60.871093 73.132813 31.273437.460937-.511719.925781-1.039063 1.386718-1.578125zm0 0" fill="#fd5f7e"/><path d="m402.324219 254.882812s29.527343 27.570313 33.628906 88.921876c2.648437 39.6875-46.566406 60.871093-73.136719 31.273437-.460937-.511719-.925781-1.039063-1.386718-1.578125zm0 0" fill="#fd5f7e"/><g fill="#f9496e"><path d="m402.324219 254.882812-40.894531 118.617188c.460937.539062.925781 1.066406 1.386718 1.578125 5.90625 6.578125 12.929688 10.644531 20.257813 12.558594 1.667969-2.144531 3.308593-4.328125 4.902343-6.582031 17.773438-25.117188 30.105469-56.335938 36.179688-90.746094-9.773438-24.140625-21.832031-35.425782-21.832031-35.425782zm0 0"/><path d="m361.429688 373.5-75.898438 46.53125c.011719 8.785156.785156 17.695312 1.859375 25.871094 26.828125-4.773438 50.796875-15.824219 71.195313-32.808594 3.464843-10.65625 5.824218-23.144531 2.84375-39.59375zm0 0"/><path d="m153.414062 413.09375c20.398438 16.984375 44.367188 28.035156 71.195313 32.808594 1.074219-8.175782 1.847656-17.085938 1.859375-25.867188l-75.898438-46.535156c-2.976562 16.449219-.621093 28.9375 2.84375 39.59375zm0 0"/><path d="m87.84375 290.308594c6.074219 34.40625 18.40625 65.628906 36.179688 90.746094 1.59375 2.253906 3.234374 4.4375 4.902343 6.582031 7.328125-1.914063 14.351563-5.980469 20.257813-12.558594.460937-.511719.925781-1.039063 1.386718-1.578125l-40.894531-118.617188s-12.054687 11.285157-21.832031 35.425782zm0 0"/></g><path d="m256 422.863281c-205.996094 0-184.996094-380.996093 0-380.996093 185 0 206 380.996093 0 380.996093zm0 0" fill="#ff748f"/><path d="m349 291.03125c0-54.03125-41.636719-97.832031-93-97.832031s-93 43.800781-93 97.832031 41.636719 97.832031 93 97.832031 93-43.800781 93-97.832031zm0 0" fill="#f5e277"/><path d="m286.871094 150.011719c-3.214844-2.808594-8.09375-2.480469-10.902344.730469-1.703125 1.949218-4.28125 3.0625-7.074219 3.0625-2.796875 0-5.375-1.113282-7.078125-3.0625-1.453125-1.648438-3.617187-2.632813-5.816406-2.632813-2.203125 0-4.367188.976563-5.816406 2.632813-1.703125 1.949218-4.28125 3.0625-7.074219 3.0625-2.796875 0-5.375-1.113282-7.074219-3.0625-2.808594-3.210938-7.691406-3.539063-10.902344-.730469-3.214843 2.808593-3.542968 7.691406-.734374 10.902343 4.636718 5.304688 11.457031 8.347657 18.710937 8.347657 4.625 0 9.070313-1.242188 12.890625-3.515625 3.820312 2.273437 8.265625 3.515625 12.894531 3.515625 7.253907 0 14.070313-3.042969 18.707031-8.347657 2.808594-3.210937 2.480469-8.09375-.730468-10.902343zm0 0" fill="#3d4851"/><path d="m319.285156 140.710938c4.269532 0 7.726563-3.457032 7.726563-7.722657v-12.308593c0-4.265626-3.457031-7.726563-7.726563-7.726563-4.265625 0-7.726562 3.460937-7.726562 7.726563v12.308593c0 4.265625 3.460937 7.722657 7.726562 7.722657zm0 0" fill="#3d4851"/><path d="m327.664062 145.347656h-16.757812c-4.265625 0-7.726562 3.460938-7.726562 7.726563s3.460937 7.726562 7.726562 7.726562h16.757812c4.269532 0 7.726563-3.460937 7.726563-7.726562s-3.457031-7.726563-7.726563-7.726563zm0 0" fill="#f9496e"/><path d="m192.714844 140.710938c4.265625 0 7.726562-3.457032 7.726562-7.722657v-12.308593c0-4.265626-3.460937-7.726563-7.726562-7.726563-4.269532 0-7.726563 3.460937-7.726563 7.726563v12.308593c0 4.265625 3.457031 7.722657 7.726563 7.722657zm0 0" fill="#3d4851"/><path d="m201.09375 145.347656h-16.761719c-4.265625 0-7.726562 3.460938-7.726562 7.726563s3.460937 7.726562 7.726562 7.726562h16.761719c4.265625 0 7.726562-3.460937 7.726562-7.726562s-3.457031-7.726563-7.726562-7.726563zm0 0" fill="#f9496e"/></svg>